<?xml version="1.0" standalone="no"?><!DOCTYPE svg PUBLIC "-//W3C//DTD SVG 1.1//EN" "http://www.w3.org/Graphics/SVG/1.1/DTD/svg11.dtd"><svg t="1597977468828" class="icon" viewBox="0 0 1024 1024" version="1.1" xmlns="http://www.w3.org/2000/svg" p-id="3014" xmlns:xlink="http://www.w3.org/1999/xlink" width="200" height="200"><defs><style type="text/css"></style></defs><path d="M912.16 114.65h-800a100 100 0 0 0-100 100v595a100 100 0 0 0 100 100h800a100 100 0 0 0 100-100v-595a100 100 0 0 0-100-100z m0 715h-800a20 20 0 0 1-20-20V548.46c34.75-21.3 83.45-41.77 157.83-41.77 118.44 0 175 49.09 240.54 105.93 67.8 58.83 144.65 125.5 293 125.5 54.91 0 103.43-8.91 148.67-27.61v99.14a20 20 0 0 1-20.04 20z m20-207.88c-44.48 25.08-91.21 36.42-148.67 36.42-118.44 0-175-49.09-240.54-105.93-67.8-58.83-144.65-125.5-293-125.5-46.32 0-87.68 6.3-126.44 19.26q-15.93 5.33-31.39 12.25V214.65a20 20 0 0 1 20-20h800a20 20 0 0 1 20 20z" fill="#7B808B" p-id="3015"></path><path d="M730.25 244.36a122.43 122.43 0 1 0 122.43 122.43 122.57 122.57 0 0 0-122.43-122.43z m0 164.86a42.43 42.43 0 1 1 42.43-42.43 42.48 42.48 0 0 1-42.43 42.43zM532.91 677c-8.37-7.12-16.63-14.35-25.37-22-66-57.83-140.81-123.38-255.8-123.38a375.57 375.57 0 0 0-67.25 5.79 15 15 0 1 0 5.39 29.51 345.57 345.57 0 0 1 61.85-5.3c103.71 0 171 58.94 236 115.95 8.44 7.4 17.17 15 25.71 22.3A15 15 0 1 0 532.91 677z" fill="#7B808B" p-id="3016"></path><path d="M134.81 565.97m-15 0a15 15 0 1 0 30 0 15 15 0 1 0-30 0Z" fill="#7B808B" p-id="3017"></path></svg>